<svg xmlns="http://www.w3.org/2000/svg" width="800" height="210" viewBox="0 0 800 210">
  <defs>
    <linearGradient id="bg" x1="0%" y1="0%" x2="100%" y2="100%">
      <stop offset="0%" style="stop-color:#0a0e1a"/>
      <stop offset="50%" style="stop-color:#0f1628"/>
      <stop offset="100%" style="stop-color:#0a0e1a"/>
    </linearGradient>
    <linearGradient id="brand" x1="0%" y1="0%" x2="100%" y2="0%">
      <stop offset="0%" style="stop-color:#1544AD"/>
      <stop offset="100%" style="stop-color:#08B5FF"/>
    </linearGradient>
    <linearGradient id="flame" x1="0%" y1="100%" x2="0%" y2="0%">
      <stop offset="0%" style="stop-color:#1544AD"/>
      <stop offset="60%" style="stop-color:#08B5FF"/>
      <stop offset="100%" style="stop-color:#4DD4FF"/>
    </linearGradient>
  </defs>

  <!-- Background -->
  <rect width="800" height="210" fill="url(#bg)" rx="6"/>

  <!-- Decorative dot grid -->
  <g opacity="0.4">
    <circle cx="660" cy="25" r="1" fill="#08B5FF"/>
    <circle cx="680" cy="25" r="1" fill="#08B5FF"/>
    <circle cx="700" cy="25" r="1" fill="#08B5FF"/>
    <circle cx="720" cy="25" r="1" fill="#08B5FF"/>
    <circle cx="740" cy="25" r="1" fill="#08B5FF"/>
    <circle cx="760" cy="25" r="1" fill="#08B5FF"/>
    <circle cx="660" cy="42" r="1" fill="#08B5FF"/>
    <circle cx="680" cy="42" r="1" fill="#08B5FF"/>
    <circle cx="700" cy="42" r="1" fill="#08B5FF"/>
    <circle cx="720" cy="42" r="1" fill="#08B5FF"/>
    <circle cx="740" cy="42" r="1" fill="#08B5FF"/>
    <circle cx="760" cy="42" r="1" fill="#08B5FF"/>
    <circle cx="660" cy="59" r="1" fill="#08B5FF"/>
    <circle cx="680" cy="59" r="1" fill="#08B5FF"/>
    <circle cx="700" cy="59" r="1" fill="#08B5FF"/>
    <circle cx="720" cy="59" r="1" fill="#08B5FF"/>
    <circle cx="740" cy="59" r="1" fill="#08B5FF"/>
    <circle cx="760" cy="59" r="1" fill="#08B5FF"/>
    <circle cx="660" cy="76" r="1" fill="#08B5FF"/>
    <circle cx="680" cy="76" r="1" fill="#08B5FF"/>
    <circle cx="700" cy="76" r="1" fill="#08B5FF"/>
    <circle cx="720" cy="76" r="1" fill="#08B5FF"/>
    <circle cx="740" cy="76" r="1" fill="#08B5FF"/>
    <circle cx="760" cy="76" r="1" fill="#08B5FF"/>
  </g>

  <!-- Logo area: stylized flame with orbiting arcs -->
  <g transform="translate(30, 28)">
    <!-- Soft glow behind flame -->
    <circle cx="58" cy="70" r="44" fill="#08B5FF" opacity="0.08"/>
    <circle cx="58" cy="70" r="32" fill="#08B5FF" opacity="0.1"/>

    <!-- Orbiting arc rings -->
    <circle cx="58" cy="70" r="40" fill="none" stroke="#1544AD" stroke-width="1.5" stroke-dasharray="8 12" opacity="0.5"/>
    <circle cx="58" cy="70" r="52" fill="none" stroke="#08B5FF" stroke-width="1" stroke-dasharray="8 12" opacity="0.3"/>

    <!-- Flame icon -->
    <g transform="translate(38, 30) scale(0.08)">
      <path fill="url(#flame)" d="M240,960c0,0-10,500,187,620c159-119,241-381,215-620c0,0,322-139,321-470c0,0-148,179-336,197
        c0,0,26-230-74-460c-84-192-196-500-133-800c-61,111-195,347-152,626s40,557-9,623c0,0-176,11-323-146
        C-64,530-107,794,240,960z"/>
    </g>
  </g>

  <!-- Accent line -->
  <line x1="140" y1="138" x2="750" y2="138" stroke="url(#brand)" stroke-width="1.5" stroke-linecap="round" opacity="0.6"/>

  <!-- Company name -->
  <text x="140" y="72" font-family="'Segoe UI', system-ui, -apple-system, sans-serif" font-size="38" font-weight="700" fill="#FFFFFF">
    Micro Evaluation Group
  </text>

  <!-- Tagline -->
  <text x="140" y="104" font-family="'Segoe UI', system-ui, -apple-system, sans-serif" font-size="16" fill="#7a8599" font-weight="400" letter-spacing="0.5">
    Precision insights. Elevated standards.
  </text>

  <!-- Badges -->
  <g>
    <rect x="140" y="152" width="100" height="26" rx="13" fill="#1544AD" opacity="0.2"/>
    <text x="190" y="170" font-family="'Segoe UI', system-ui, sans-serif" font-size="11" fill="#08B5FF" text-anchor="middle" font-weight="500">Open Source</text>
  </g>
  <g>
    <rect x="252" y="152" width="100" height="26" rx="13" fill="#1544AD" opacity="0.2"/>
    <text x="302" y="170" font-family="'Segoe UI', system-ui, sans-serif" font-size="11" fill="#8babd8" text-anchor="middle" font-weight="500">Community</text>
  </g>
</svg>
