<svg xmlns="http://www.w3.org/2000/svg" width="800" height="210" viewBox="0 0 800 210">
  <defs>
    <linearGradient id="bg" x1="0%" y1="0%" x2="100%" y2="100%">
      <stop offset="0%" style="stop-color:#0a0e1a"/>
      <stop offset="50%" style="stop-color:#0f1628"/>
      <stop offset="100%" style="stop-color:#0a0e1a"/>
    </linearGradient>
    <linearGradient id="brand" x1="0%" y1="0%" x2="100%" y2="0%">
      <stop offset="0%" style="stop-color:#1544AD"/>
      <stop offset="100%" style="stop-color:#08B5FF"/>
    </linearGradient>
    <linearGradient id="flame" x1="0%" y1="100%" x2="0%" y2="0%">
      <stop offset="0%" style="stop-color:#1544AD"/>
      <stop offset="60%" style="stop-color:#08B5FF"/>
      <stop offset="100%" style="stop-color:#4DD4FF"/>
    </linearGradient>
    <filter id="glow">
      <feGaussianBlur stdDeviation="4" result="blur"/>
      <feMerge>
        <feMergeNode in="blur"/>
        <feMergeNode in="SourceGraphic"/>
      </feMerge>
    </filter>
    <filter id="softglow">
      <feGaussianBlur stdDeviation="8" result="blur"/>
      <feMerge>
        <feMergeNode in="blur"/>
      </feMerge>
    </filter>
  </defs>

  <style>
    @keyframes slideIn {
      from { opacity: 0; transform: translateX(-20px); }
      to { opacity: 1; transform: translateX(0); }
    }
    @keyframes fadeUp {
      from { opacity: 0; transform: translateY(8px); }
      to { opacity: 1; transform: translateY(0); }
    }
    @keyframes drawLine {
      from { stroke-dashoffset: 700; }
      to { stroke-dashoffset: 0; }
    }
    @keyframes pulse {
      0%, 100% { opacity: 0.3; }
      50% { opacity: 0.7; }
    }
    @keyframes flameGlow {
      0%, 100% { opacity: 0.5; transform: scale(1); }
      50% { opacity: 0.8; transform: scale(1.05); }
    }
    @keyframes orbit {
      0% { stroke-dashoffset: 0; }
      100% { stroke-dashoffset: -251; }
    }
    .title {
      animation: slideIn 0.8s ease-out forwards;
      opacity: 0;
    }
    .subtitle {
      animation: slideIn 0.8s ease-out 0.3s forwards;
      opacity: 0;
    }
    .accent-line {
      stroke-dasharray: 700;
      stroke-dashoffset: 700;
      animation: drawLine 1.5s ease-out 0.5s forwards;
    }
    .grid-dot {
      animation: pulse 3s ease-in-out infinite;
    }
    .flame-aura {
      animation: flameGlow 3s ease-in-out infinite;
      transform-origin: 58px 100px;
    }
    .orbit-ring {
      stroke-dasharray: 8 12;
      animation: orbit 12s linear infinite;
    }
    .badge {
      animation: fadeUp 0.5s ease-out forwards;
      opacity: 0;
    }
    .badge-1 { animation-delay: 1s; }
    .badge-2 { animation-delay: 1.15s; }
    .badge-3 { animation-delay: 1.3s; }
  </style>

  <!-- Background -->
  <rect width="800" height="210" fill="url(#bg)" rx="6"/>

  <!-- Decorative dot grid -->
  <g class="grid-dot" opacity="0.3">
    <circle cx="660" cy="25" r="1" fill="#08B5FF"/>
    <circle cx="680" cy="25" r="1" fill="#08B5FF"/>
    <circle cx="700" cy="25" r="1" fill="#08B5FF"/>
    <circle cx="720" cy="25" r="1" fill="#08B5FF"/>
    <circle cx="740" cy="25" r="1" fill="#08B5FF"/>
    <circle cx="760" cy="25" r="1" fill="#08B5FF"/>
    <circle cx="660" cy="42" r="1" fill="#08B5FF"/>
    <circle cx="680" cy="42" r="1" fill="#08B5FF"/>
    <circle cx="700" cy="42" r="1" fill="#08B5FF"/>
    <circle cx="720" cy="42" r="1" fill="#08B5FF"/>
    <circle cx="740" cy="42" r="1" fill="#08B5FF"/>
    <circle cx="760" cy="42" r="1" fill="#08B5FF"/>
    <circle cx="660" cy="59" r="1" fill="#08B5FF"/>
    <circle cx="680" cy="59" r="1" fill="#08B5FF"/>
    <circle cx="700" cy="59" r="1" fill="#08B5FF"/>
    <circle cx="720" cy="59" r="1" fill="#08B5FF"/>
    <circle cx="740" cy="59" r="1" fill="#08B5FF"/>
    <circle cx="760" cy="59" r="1" fill="#08B5FF"/>
    <circle cx="660" cy="76" r="1" fill="#08B5FF"/>
    <circle cx="680" cy="76" r="1" fill="#08B5FF"/>
    <circle cx="700" cy="76" r="1" fill="#08B5FF"/>
    <circle cx="720" cy="76" r="1" fill="#08B5FF"/>
    <circle cx="740" cy="76" r="1" fill="#08B5FF"/>
    <circle cx="760" cy="76" r="1" fill="#08B5FF"/>
  </g>

  <!-- Logo area: stylized flame with orbiting arcs -->
  <g transform="translate(30, 28)">
    <!-- Soft glow behind flame -->
    <circle class="flame-aura" cx="58" cy="70" r="40" fill="#08B5FF" filter="url(#softglow)" opacity="0.3"/>

    <!-- Orbiting arc rings -->
    <circle class="orbit-ring" cx="58" cy="70" r="40" fill="none" stroke="#1544AD" stroke-width="1.5" opacity="0.5"/>
    <circle class="orbit-ring" cx="58" cy="70" r="52" fill="none" stroke="#08B5FF" stroke-width="1" opacity="0.3" style="animation-direction: reverse; animation-duration: 18s;"/>

    <!-- Flame icon (simplified from brand) -->
    <g transform="translate(38, 30) scale(0.08)" filter="url(#glow)">
      <path fill="url(#flame)" d="M240,960c0,0-10,500,187,620c159-119,241-381,215-620c0,0,322-139,321-470c0,0-148,179-336,197
        c0,0,26-230-74-460c-84-192-196-500-133-800c-61,111-195,347-152,626s40,557-9,623c0,0-176,11-323-146
        C-64,530-107,794,240,960z"/>
    </g>
  </g>

  <!-- Accent line -->
  <line class="accent-line" x1="140" y1="138" x2="750" y2="138" stroke="url(#brand)" stroke-width="1.5" stroke-linecap="round" opacity="0.6"/>

  <!-- Company name -->
  <g class="title">
    <text x="140" y="72" font-family="'Segoe UI', system-ui, -apple-system, sans-serif" font-size="38" font-weight="700" fill="#FFFFFF">
      Micro Evaluation Group
    </text>
  </g>

  <!-- Tagline -->
  <g class="subtitle">
    <text x="140" y="104" font-family="'Segoe UI', system-ui, -apple-system, sans-serif" font-size="16" fill="#7a8599" font-weight="400" letter-spacing="0.5">
      Precision insights. Elevated standards.
    </text>
  </g>

  <!-- Badges -->
  <g class="badge badge-1">
    <rect x="140" y="152" width="100" height="26" rx="13" fill="#1544AD" opacity="0.2"/>
    <text x="190" y="170" font-family="'Segoe UI', system-ui, sans-serif" font-size="11" fill="#08B5FF" text-anchor="middle" font-weight="500">Open Source</text>
  </g>
  <g class="badge badge-2">
    <rect x="252" y="152" width="110" height="26" rx="13" fill="#1544AD" opacity="0.2"/>
    <text x="307" y="170" font-family="'Segoe UI', system-ui, sans-serif" font-size="11" fill="#4DD4FF" text-anchor="middle" font-weight="500">We're Hiring</text>
  </g>
  <g class="badge badge-3">
    <rect x="374" y="152" width="100" height="26" rx="13" fill="#1544AD" opacity="0.2"/>
    <text x="424" y="170" font-family="'Segoe UI', system-ui, sans-serif" font-size="11" fill="#8babd8" text-anchor="middle" font-weight="500">Community</text>
  </g>
</svg>
