<svg xmlns="http://www.w3.org/2000/svg" width="800" height="210" viewBox="0 0 800 210">
  <defs>
    <linearGradient id="bg" x1="0%" y1="0%" x2="100%" y2="100%">
      <stop offset="0%" style="stop-color:#0a0e1a"/>
      <stop offset="50%" style="stop-color:#0f1628"/>
      <stop offset="100%" style="stop-color:#0a0e1a"/>
    </linearGradient>
    <linearGradient id="brand" x1="0%" y1="0%" x2="100%" y2="0%">
      <stop offset="0%" style="stop-color:#1544AD"/>
      <stop offset="100%" style="stop-color:#08B5FF"/>
    </linearGradient>
    <linearGradient id="flame" x1="0%" y1="100%" x2="0%" y2="0%">
      <stop offset="0%" style="stop-color:#1544AD"/>
      <stop offset="60%" style="stop-color:#08B5FF"/>
      <stop offset="100%" style="stop-color:#4DD4FF"/>
    </linearGradient>
  </defs>

  <!-- Background -->
  <rect width="800" height="210" fill="url(#bg)" rx="6"/>

  <!-- Decorative dot grid -->
  <g opacity="0.4">
    <circle cx="660" cy="25" r="1" fill="#08B5FF"/>
    <circle cx="680" cy="25" r="1" fill="#08B5FF"/>
    <circle cx="700" cy="25" r="1" fill="#08B5FF"/>
    <circle cx="720" cy="25" r="1" fill="#08B5FF"/>
    <circle cx="740" cy="25" r="1" fill="#08B5FF"/>
    <circle cx="760" cy="25" r="1" fill="#08B5FF"/>
    <circle cx="660" cy="42" r="1" fill="#08B5FF"/>
    <circle cx="680" cy="42" r="1" fill="#08B5FF"/>
    <circle cx="700" cy="42" r="1" fill="#08B5FF"/>
    <circle cx="720" cy="42" r="1" fill="#08B5FF"/>
    <circle cx="740" cy="42" r="1" fill="#08B5FF"/>
    <circle cx="760" cy="42" r="1" fill="#08B5FF"/>
    <circle cx="660" cy="59" r="1" fill="#08B5FF"/>
    <circle cx="680" cy="59" r="1" fill="#08B5FF"/>
    <circle cx="700" cy="59" r="1" fill="#08B5FF"/>
    <circle cx="720" cy="59" r="1" fill="#08B5FF"/>
    <circle cx="740" cy="59" r="1" fill="#08B5FF"/>
    <circle cx="760" cy="59" r="1" fill="#08B5FF"/>
    <circle cx="660" cy="76" r="1" fill="#08B5FF"/>
    <circle cx="680" cy="76" r="1" fill="#08B5FF"/>
    <circle cx="700" cy="76" r="1" fill="#08B5FF"/>
    <circle cx="720" cy="76" r="1" fill="#08B5FF"/>
    <circle cx="740" cy="76" r="1" fill="#08B5FF"/>
    <circle cx="760" cy="76" r="1" fill="#08B5FF"/>
  </g>

  <!-- MEG Logo: fingerprint with flame -->
  <svg x="18" y="15" width="95" height="120" viewBox="0 0 333 421">
    <g transform="translate(0 -3650.94) translate(-533.82 3199.19) translate(395.455 309.091) matrix(1 0 0 1 -481.818 700)">
      <!-- Fingerprint rings -->
      <path fill="#1544AD" d="m866.98,-222.76c-16.97,16.97 -38.24,27.99 -61.5,31.87c-4.9,0.81 -8.22,5.45 -7.4,10.35c0.82,4.9 5.45,8.22 10.36,7.4c26.98,-4.5 51.63,-17.25 71.27,-36.9c24.94,-24.94 38.68,-57.94 38.68,-92.92l0,-87.78c0,-34.98 -13.74,-67.98 -38.68,-92.92c-1.76,-1.76 -4.06,-2.64 -6.37,-2.64s-4.6,0.88 -6.36,2.64c-3.51,3.51 -3.51,9.21 0,12.72c21.54,21.55 33.41,50.03 33.41,80.2l0,87.78c0,30.17 -11.87,58.65 -33.41,80.2zm-123.62,-36.77c4.7,4.7 10.01,8.54 15.72,11.47c-2.49,-8.84 -3.94,-18.02 -4.77,-26.1c-1.97,-2.2 -3.71,-4.56 -5.18,-7.06c-1.68,-2.84 -4.68,-4.43 -7.76,-4.43c-1.56,0 -3.13,0.41 -4.57,1.25c-4.28,2.53 -5.7,8.05 -3.18,12.33c2.68,4.53 5.96,8.75 9.74,12.54zm48.86,-227.66c-0.76,5.54 -1.2,11.57 -1.28,17.96c19.28,1.02 37.36,9.11 51.29,23.04c14.93,14.94 23.16,34.63 23.16,55.45l0,87.78c0,7.27 -1,14.46 -2.98,21.38c-1.36,4.78 1.4,9.76 6.18,11.13c4.78,1.36 9.76,-1.41 11.13,-6.19c2.43,-8.53 3.67,-17.38 3.67,-26.32l0,-87.78c0,-25.63 -10.1,-49.84 -28.43,-68.18c-17.03,-17.02 -39.14,-26.94 -62.74,-28.27zm56.17,184.23l0,-18.05c-5.26,8.64 -11.95,15.3 -18.05,20.15c-0.51,10.33 -4.75,20.08 -12.07,27.78c-1.14,9.29 -3.43,18.25 -6.7,26.42c6.83,-3.06 13.15,-7.38 18.64,-12.87c11.72,-11.72 18.18,-27.15 18.18,-43.43zm34.96,115.34c-1.94,0 -3.89,0.62 -5.53,1.9c-26.33,20.52 -57.81,31.37 -91.03,31.37c-29.64,0 -58.31,-8.81 -82.92,-25.47c-4.11,-2.78 -9.71,-1.71 -12.49,2.41s-1.72,9.71 2.4,12.5c27.6,18.68 59.76,28.56 93.01,28.56c37.27,0 72.57,-12.16 102.09,-35.17c3.92,-3.06 4.63,-8.71 1.57,-12.63c-1.78,-2.28 -4.43,-3.47 -7.1,-3.47zm-139.99,-246.55c-11.72,11.73 -18.18,27.15 -18.18,43.43l0,29.91l4.53,4.81c4.42,4.71 9.08,7.98 13.47,10.25l0,-44.97c0,-11.22 4.4,-21.89 12.37,-30.14c-0.16,-8.55 0.8,-16.67 2.43,-24.2c-5.29,2.85 -10.22,6.51 -14.62,10.91zm105.03,43.43c0,-4.97 -4.03,-9 -9,-9s-9,4.03 -9,9l0,42.18c8.03,-5.71 13.27,-11.92 13.36,-12.03l4.64,-5.57l0,-24.58zm-18.18,-30.7c3.52,-3.51 3.52,-9.21 0,-12.73c-10.56,-10.56 -24.14,-16.83 -38.63,-17.97c0.5,5.99 1.29,12.16 2.42,18.42c8.77,1.5 16.93,5.73 23.48,12.28c3.52,3.52 9.22,3.52 12.73,0zm-124.34,-72.88c-4.18,3.28 -8.22,6.87 -12.01,10.66c-24.94,24.94 -38.68,57.94 -38.68,92.92l0,87.78c0,34.98 13.74,67.98 38.68,92.92c18.97,18.97 42.7,31.56 68.64,36.43c4.89,0.92 9.59,-2.3 10.51,-7.18c0.92,-4.89 -2.3,-9.59 -7.19,-10.51c-22.36,-4.2 -42.84,-15.08 -59.23,-31.46c-21.54,-21.55 -33.41,-50.03 -33.41,-80.2l0,-87.78c0,-30.17 11.87,-58.65 33.41,-80.19c3.29,-3.29 6.79,-6.4 10.4,-9.24c3.91,-3.07 4.59,-8.73 1.51,-12.64c-1.77,-2.26 -4.41,-3.44 -7.08,-3.44c-1.94,0 -3.91,0.63 -5.55,1.93zm-76.69,128.23c4.97,0 9,-4.03 9,-9l0,-15.65c0,-52.26 28.18,-101.35 73.55,-128.11c4.28,-2.52 5.7,-8.04 3.18,-12.32c-1.68,-2.85 -4.68,-4.43 -7.76,-4.43c-1.56,0 -3.13,0.4 -4.57,1.25c-24.58,14.5 -45.2,35.18 -59.64,59.8c-14.89,25.39 -22.76,54.38 -22.76,83.81l0,15.65c0,4.97 4.03,9 9,9zm30.07,170.04c3.19,3.81 8.87,4.3 12.68,1.1c3.8,-3.2 4.29,-8.87 1.1,-12.68c-22.47,-26.74 -34.85,-60.6 -34.85,-95.33l0,-30.84c0,-4.97 -4.02,-9 -9,-9s-9,4.03 -9,9l0,30.84c0,38.96 13.87,76.93 39.07,106.91zm81.24,-335.86c14.91,-4.93 30.49,-7.43 46.3,-7.43c33.68,0 65.5,11.11 92.02,32.14c25.73,20.4 44.26,49.01 52.16,80.55c1.21,4.82 6.11,7.75 10.92,6.54c4.82,-1.21 7.75,-6.1 6.54,-10.92c-8.86,-35.36 -29.62,-67.42 -58.44,-90.28c-29.73,-23.57 -65.42,-36.03 -103.2,-36.03c-17.73,0 -35.21,2.8 -51.95,8.34c-4.72,1.56 -7.28,6.65 -5.72,11.37c1.56,4.72 6.65,7.28 11.37,5.72zm-49.42,128.09c-0.67,4.92 2.77,9.46 7.7,10.14c4.92,0.66 9.46,-2.78 10.14,-7.7c2.32,-16.96 10.08,-32.45 22.43,-44.81c9.46,-9.46 20.83,-16.21 33.19,-19.9c3.31,-8.21 6.96,-15.14 9.87,-20.45c-20.97,2.71 -40.44,12.28 -55.79,27.62c-15.15,15.16 -24.68,34.21 -27.54,55.1zm244.32,18.94l0,81.92c0,36.76 -13.68,72.11 -38.52,99.54c-3.33,3.69 -3.05,9.38 0.63,12.71c3.69,3.34 9.38,3.06 12.72,-0.63c27.84,-30.74 43.17,-70.38 43.17,-111.62l0,-81.92c0,-4.97 -4.03,-9 -9,-9s-9,4.03 -9,9zm-82.22,-119.38c-20.04,-11.83 -42.99,-18.08 -66.38,-18.08c-15.2,0 -30.1,2.58 -44.27,7.68c-4.68,1.68 -7.11,6.84 -5.42,11.51c1.68,4.68 6.83,7.11 11.51,5.43c12.21,-4.39 25.06,-6.62 38.18,-6.62c20.17,0 39.96,5.39 57.23,15.58c4.29,2.53 9.8,1.1 12.33,-3.18c2.53,-4.28 1.11,-9.8 -3.18,-12.32zm-162.99,201.3c0,25.63 10.1,49.84 28.43,68.18c18.34,18.33 42.55,28.43 68.18,28.43c25.63,0 49.84,-10.1 68.17,-28.43c3.51,-3.52 3.51,-9.22 0,-12.73c-3.52,-3.52 -9.21,-3.52 -12.73,0c-11.89,11.89 -26.8,19.51 -42.89,22.13c-3.16,3.9 -6.66,7.33 -10.44,10.15l-4.35,3.25l-4.63,-2.84c-4.62,-2.84 -8.43,-6.92 -11.6,-11.76c-13.82,-3.37 -26.56,-10.51 -36.98,-20.93c-14.93,-14.93 -23.16,-34.62 -23.16,-55.45l0,-50.84c0,-4.97 -4.03,-9 -9,-9s-9,4.03 -9,9l0,50.84z"/>
      <!-- Flame -->
      <path fill="url(#flame)" d="m761.2,-297.79c0,0 -1.22,61.33 22.91,76.15c19.56,-14.6 29.64,-46.77 26.39,-76.18c0,0 39.52,-17.05 39.41,-57.66c0,0 -18.2,22.03 -41.26,24.18c0,0 3.17,-28.26 -9.12,-56.4c-10.29,-23.53 -24.03,-61.47 -16.31,-98.27c-7.5,13.58 -23.98,42.63 -18.63,76.86c5.34,34.23 4.95,68.34 -1.06,76.48c0,0 -21.57,1.33 -39.65,-17.91c0,0 -5.36,32.42 37.32,52.75zm32.63,-66.08c6.64,19.41 -3.79,34.95 -7.8,37.54c1.37,-5.71 -1.92,-27.61 -1.92,-27.61c5.71,0.58 9.72,-9.93 9.72,-9.93z"/>
    </g>
  </svg>

  <!-- Accent line -->
  <line x1="140" y1="138" x2="750" y2="138" stroke="url(#brand)" stroke-width="1.5" stroke-linecap="round" opacity="0.6"/>

  <!-- Company name -->
  <text x="140" y="72" font-family="'Segoe UI', system-ui, -apple-system, sans-serif" font-size="38" font-weight="700" fill="#FFFFFF">
    Micro Evaluation Group
  </text>

  <!-- Tagline -->
  <text x="140" y="104" font-family="'Segoe UI', system-ui, -apple-system, sans-serif" font-size="16" fill="#7a8599" font-weight="400" letter-spacing="0.5">
    Precision insights. Elevated standards.
  </text>

  <!-- Badges -->
  <g>
    <rect x="140" y="152" width="100" height="26" rx="13" fill="#1544AD" opacity="0.2"/>
    <text x="190" y="170" font-family="'Segoe UI', system-ui, sans-serif" font-size="11" fill="#08B5FF" text-anchor="middle" font-weight="500">Open Source</text>
  </g>
  <g>
    <rect x="252" y="152" width="100" height="26" rx="13" fill="#1544AD" opacity="0.2"/>
    <text x="302" y="170" font-family="'Segoe UI', system-ui, sans-serif" font-size="11" fill="#8babd8" text-anchor="middle" font-weight="500">Community</text>
  </g>
</svg>
