<svg xmlns="http://www.w3.org/2000/svg" width="1530" height="619" viewBox="516 469 1530 619">
<rect x="516" y="469" width="1530" height="619" fill="#FFFFFF"/>
<g>
	<g>
		<path d="M1249.214,605.687v87.75h-21.375v-52.625l-19.625,52.625h-17.25l-19.75-52.75v52.75h-21.375v-87.75h25.25l24.625,60.75
			l24.375-60.75H1249.214z"/>
		<path d="M1266.151,613.125c-2.375-2.207-3.562-4.938-3.562-8.188c0-3.332,1.188-6.104,3.562-8.312
			c2.375-2.207,5.438-3.312,9.188-3.312c3.666,0,6.688,1.105,9.062,3.312c2.375,2.209,3.562,4.98,3.562,8.312
			c0,3.25-1.188,5.98-3.562,8.188c-2.375,2.209-5.396,3.312-9.062,3.312C1271.589,616.437,1268.526,615.334,1266.151,613.125z
			 M1285.964,623.687v69.75h-21.375v-69.75H1285.964z"/>
		<path d="M1301.651,639.562c2.957-5.416,7.082-9.582,12.375-12.5c5.291-2.916,11.354-4.375,18.188-4.375
			c8.75,0,16.062,2.293,21.938,6.875c5.875,4.584,9.729,11.043,11.562,19.375h-22.75c-1.918-5.332-5.625-8-11.125-8
			c-3.918,0-7.043,1.521-9.375,4.562c-2.334,3.043-3.5,7.396-3.5,13.062c0,5.668,1.166,10.021,3.5,13.062
			c2.332,3.043,5.457,4.562,9.375,4.562c5.5,0,9.207-2.666,11.125-8h22.75c-1.834,8.168-5.709,14.584-11.625,19.25
			c-5.918,4.668-13.209,7-21.875,7c-6.834,0-12.896-1.457-18.188-4.375c-5.293-2.916-9.418-7.082-12.375-12.5
			c-2.959-5.416-4.438-11.75-4.438-19S1298.692,644.98,1301.651,639.562z"/>
		<path d="M1407.839,626.25c3.75-2.207,7.916-3.312,12.5-3.312v22.625h-5.875c-5.334,0-9.334,1.146-12,3.438
			c-2.668,2.293-4,6.312-4,12.062v32.375h-21.375v-69.75h21.375v11.625C1400.964,631.48,1404.089,628.459,1407.839,626.25z"/>
		<path d="M1443.899,690.062c-5.459-2.916-9.75-7.082-12.875-12.5c-3.125-5.416-4.688-11.75-4.688-19
			c0-7.166,1.582-13.479,4.75-18.938c3.166-5.457,7.5-9.645,13-12.562c5.5-2.916,11.666-4.375,18.5-4.375
			c6.832,0,13,1.459,18.5,4.375c5.5,2.918,9.832,7.105,13,12.562c3.166,5.459,4.75,11.771,4.75,18.938
			c0,7.168-1.605,13.48-4.812,18.938c-3.209,5.459-7.584,9.646-13.125,12.562c-5.543,2.918-11.73,4.375-18.562,4.375
			C1455.503,694.437,1449.356,692.98,1443.899,690.062z M1472.774,671.437c2.875-3,4.312-7.291,4.312-12.875
			c0-5.582-1.396-9.875-4.188-12.875c-2.793-3-6.23-4.5-10.312-4.5c-4.168,0-7.625,1.48-10.375,4.438
			c-2.75,2.959-4.125,7.271-4.125,12.938c0,5.584,1.354,9.875,4.062,12.875c2.707,3,6.104,4.5,10.188,4.5
			C1466.419,675.937,1469.899,674.437,1472.774,671.437z"/>
		<path d="M1171.214,731.812v17.75h28.625v16.5h-28.625v19.25h32.375v17.125h-53.75v-87.75h53.75v17.125H1171.214z"/>
		<path d="M1248.837,782.437l15.125-49.75h22.75l-24.75,69.75h-26.375l-24.75-69.75h22.875L1248.837,782.437z"/>
		<path d="M1295.524,748.562c2.707-5.416,6.395-9.582,11.062-12.5c4.666-2.916,9.875-4.375,15.625-4.375c4.916,0,9.229,1,12.938,3
			c3.707,2,6.562,4.625,8.562,7.875v-9.875h21.375v69.75h-21.375v-9.875c-2.084,3.25-4.98,5.875-8.688,7.875
			c-3.709,2-8.021,3-12.938,3c-5.668,0-10.834-1.479-15.5-4.438c-4.668-2.957-8.355-7.166-11.062-12.625
			c-2.709-5.457-4.062-11.77-4.062-18.938C1291.462,760.271,1292.815,753.98,1295.524,748.562z M1339.274,754.937
			c-2.959-3.082-6.562-4.625-10.812-4.625s-7.855,1.521-10.812,4.562c-2.959,3.043-4.438,7.23-4.438,12.562
			c0,5.334,1.479,9.562,4.438,12.688c2.957,3.125,6.562,4.688,10.812,4.688s7.854-1.541,10.812-4.625
			c2.957-3.082,4.438-7.291,4.438-12.625C1343.712,762.23,1342.231,758.021,1339.274,754.937z"/>
		<path d="M1401.96,709.937v92.5h-21.375v-92.5H1401.96z"/>
		<path d="M1486.335,732.687v69.75h-21.375v-9.5c-2.168,3.084-5.105,5.562-8.812,7.438c-3.709,1.875-7.812,2.812-12.312,2.812
			c-5.334,0-10.043-1.188-14.125-3.562c-4.084-2.375-7.25-5.812-9.5-10.312c-2.25-4.5-3.375-9.792-3.375-15.875v-40.75h21.25v37.875
			c0,4.668,1.207,8.293,3.625,10.875c2.416,2.584,5.666,3.875,9.75,3.875c4.166,0,7.457-1.291,9.875-3.875
			c2.416-2.582,3.625-6.207,3.625-10.875v-37.875H1486.335z"/>
		<path d="M1501.52,748.562c2.707-5.416,6.395-9.582,11.062-12.5c4.666-2.916,9.875-4.375,15.625-4.375c4.916,0,9.229,1,12.938,3
			c3.707,2,6.562,4.625,8.562,7.875v-9.875h21.375v69.75h-21.375v-9.875c-2.084,3.25-4.98,5.875-8.688,7.875
			c-3.709,2-8.021,3-12.938,3c-5.668,0-10.834-1.479-15.5-4.438c-4.668-2.957-8.355-7.166-11.062-12.625
			c-2.709-5.457-4.062-11.77-4.062-18.938C1497.458,760.271,1498.811,753.98,1501.52,748.562z M1545.27,754.937
			c-2.959-3.082-6.562-4.625-10.812-4.625s-7.855,1.521-10.812,4.562c-2.959,3.043-4.438,7.23-4.438,12.562
			c0,5.334,1.479,9.562,4.438,12.688c2.957,3.125,6.562,4.688,10.812,4.688s7.854-1.541,10.812-4.625
			c2.957-3.082,4.438-7.291,4.438-12.625C1549.708,762.23,1548.227,758.021,1545.27,754.937z"/>
		<path d="M1625.458,784.312v18.125h-10.875c-7.75,0-13.793-1.895-18.125-5.688c-4.334-3.791-6.5-9.979-6.5-18.563v-27.75h-8.5
			v-17.75h8.5v-17h21.375v17h14v17.75h-14v28c0,2.084,0.5,3.584,1.5,4.5c1,0.918,2.666,1.375,5,1.375H1625.458z"/>
		<path d="M1638.893,722.125c-2.375-2.207-3.562-4.938-3.562-8.188c0-3.332,1.188-6.104,3.562-8.312
			c2.375-2.207,5.438-3.312,9.188-3.312c3.666,0,6.688,1.105,9.062,3.312c2.375,2.209,3.562,4.98,3.562,8.312
			c0,3.25-1.188,5.98-3.562,8.188c-2.375,2.209-5.396,3.312-9.062,3.312C1644.331,725.437,1641.268,724.334,1638.893,722.125z
			 M1658.706,732.687v69.75h-21.375v-69.75H1658.706z"/>
		<path d="M1687.518,799.063c-5.459-2.916-9.75-7.082-12.875-12.5c-3.125-5.416-4.688-11.75-4.688-19
			c0-7.166,1.582-13.479,4.75-18.938c3.166-5.457,7.5-9.645,13-12.562c5.5-2.916,11.666-4.375,18.5-4.375
			c6.832,0,13,1.459,18.5,4.375c5.5,2.918,9.832,7.105,13,12.562c3.166,5.459,4.75,11.771,4.75,18.938
			c0,7.168-1.605,13.48-4.812,18.938c-3.209,5.459-7.584,9.647-13.125,12.563c-5.543,2.918-11.73,4.375-18.562,4.375
			C1699.122,803.438,1692.975,801.981,1687.518,799.063z M1716.393,780.437c2.875-3,4.312-7.291,4.312-12.875
			c0-5.582-1.396-9.875-4.188-12.875c-2.793-3-6.23-4.5-10.312-4.5c-4.168,0-7.625,1.48-10.375,4.438
			c-2.75,2.959-4.125,7.271-4.125,12.938c0,5.584,1.354,9.875,4.062,12.875c2.707,3,6.104,4.5,10.188,4.5
			C1710.038,784.937,1713.518,783.437,1716.393,780.437z"/>
		<path d="M1815.891,739.875c4.875,5.293,7.312,12.562,7.312,21.812v40.75h-21.25v-37.875c0-4.666-1.209-8.291-3.625-10.875
			c-2.418-2.582-5.668-3.875-9.75-3.875c-4.084,0-7.334,1.293-9.75,3.875c-2.418,2.584-3.625,6.209-3.625,10.875v37.875h-21.375
			v-69.75h21.375v9.25c2.166-3.082,5.082-5.52,8.75-7.312c3.666-1.791,7.791-2.688,12.375-2.688
			C1804.495,731.937,1811.016,734.584,1815.891,739.875z"/>
		<path d="M1208.089,851.438c-1.584-2.916-3.855-5.145-6.812-6.688c-2.959-1.541-6.438-2.312-10.438-2.312
			c-6.918,0-12.459,2.271-16.625,6.812c-4.168,4.543-6.25,10.605-6.25,18.188c0,8.084,2.188,14.396,6.562,18.938
			c4.375,4.543,10.395,6.812,18.062,6.812c5.25,0,9.688-1.332,13.312-4c3.625-2.666,6.27-6.5,7.938-11.5h-27.125v-15.75h46.5v19.875
			c-1.584,5.334-4.271,10.293-8.062,14.875c-3.793,4.584-8.605,8.293-14.438,11.125c-5.834,2.834-12.418,4.25-19.75,4.25
			c-8.668,0-16.396-1.895-23.188-5.688c-6.793-3.791-12.084-9.062-15.875-15.812c-3.793-6.75-5.688-14.457-5.688-23.125
			c0-8.666,1.895-16.395,5.688-23.188c3.791-6.791,9.062-12.082,15.812-15.875c6.75-3.791,14.457-5.688,23.125-5.688
			c10.5,0,19.354,2.543,26.562,7.625c7.207,5.084,11.979,12.125,14.312,21.125H1208.089z"/>
		<path d="M1275.839,844.25c3.75-2.207,7.916-3.312,12.5-3.312v22.625h-5.875c-5.334,0-9.334,1.146-12,3.438
			c-2.668,2.293-4,6.312-4,12.062v32.375h-21.375v-69.75h21.375v11.625C1268.964,849.481,1272.089,846.459,1275.839,844.25z"/>
		<path d="M1311.9,908.063c-5.459-2.916-9.75-7.082-12.875-12.5c-3.125-5.416-4.688-11.75-4.688-19
			c0-7.166,1.582-13.479,4.75-18.938c3.166-5.457,7.5-9.645,13-12.562c5.5-2.916,11.666-4.375,18.5-4.375
			c6.832,0,13,1.459,18.5,4.375c5.5,2.918,9.832,7.105,13,12.562c3.166,5.459,4.75,11.771,4.75,18.938
			c0,7.168-1.605,13.48-4.812,18.938c-3.209,5.459-7.584,9.646-13.125,12.562c-5.543,2.918-11.73,4.375-18.562,4.375
			C1323.504,912.438,1317.357,910.981,1311.9,908.063z M1340.775,889.438c2.875-3,4.312-7.291,4.312-12.875
			c0-5.582-1.396-9.875-4.188-12.875c-2.793-3-6.23-4.5-10.312-4.5c-4.168,0-7.625,1.48-10.375,4.438
			c-2.75,2.959-4.125,7.271-4.125,12.938c0,5.584,1.354,9.875,4.062,12.875c2.707,3,6.104,4.5,10.188,4.5
			C1334.42,893.938,1337.9,892.438,1340.775,889.438z"/>
		<path d="M1447.087,841.688v69.75h-21.375v-9.5c-2.168,3.084-5.105,5.562-8.812,7.438c-3.709,1.875-7.812,2.812-12.312,2.812
			c-5.334,0-10.043-1.188-14.125-3.562c-4.084-2.375-7.25-5.812-9.5-10.312s-3.375-9.791-3.375-15.875v-40.75h21.25v37.875
			c0,4.668,1.207,8.293,3.625,10.875c2.416,2.584,5.666,3.875,9.75,3.875c4.166,0,7.457-1.291,9.875-3.875
			c2.416-2.582,3.625-6.207,3.625-10.875v-37.875H1447.087z"/>
		<path d="M1492.462,843.688c3.666-2,7.957-3,12.875-3c5.75,0,10.957,1.459,15.625,4.375c4.666,2.918,8.354,7.084,11.062,12.5
			c2.707,5.418,4.062,11.709,4.062,18.875c0,7.168-1.355,13.48-4.062,18.938c-2.709,5.459-6.396,9.668-11.062,12.625
			c-4.668,2.959-9.875,4.438-15.625,4.438c-4.834,0-9.105-1-12.812-3c-3.709-2-6.605-4.582-8.688-7.75v43h-21.375v-103h21.375v9.875
			C1485.919,848.313,1488.794,845.688,1492.462,843.688z M1509.899,863.875c-2.959-3.041-6.605-4.562-10.938-4.562
			c-4.25,0-7.855,1.543-10.812,4.625c-2.959,3.084-4.438,7.293-4.438,12.625c0,5.334,1.479,9.543,4.438,12.625
			c2.957,3.084,6.562,4.625,10.812,4.625s7.875-1.562,10.875-4.688s4.5-7.354,4.5-12.688
			C1514.337,871.106,1512.856,866.918,1509.899,863.875z"/>
	</g>
	<g>
		<g>
			<path style="fill:#1544AD;" d="M983.593,893.086c-16.972,16.972-38.237,27.992-61.5,31.868
				c-4.902,0.817-8.215,5.454-7.398,10.357c0.817,4.902,5.447,8.215,10.357,7.398c26.984-4.497,51.629-17.255,71.27-36.896
				c24.943-24.943,38.681-57.944,38.681-92.923v-87.783c0-34.979-13.737-67.979-38.681-92.923c-1.758-1.757-4.061-2.636-6.364-2.636
				s-4.606,0.879-6.364,2.636c-3.515,3.515-3.515,9.214,0,12.729c21.544,21.544,33.409,50.024,33.409,80.194v87.783
				C1017.002,843.062,1005.137,871.542,983.593,893.086z M859.975,856.316c4.702,4.702,10.005,8.54,15.714,11.47
				c-2.483-8.836-3.932-18.015-4.77-26.096c-1.965-2.2-3.706-4.564-5.178-7.061c-1.679-2.846-4.68-4.429-7.761-4.429
				c-1.554,0-3.129,0.403-4.563,1.25c-4.281,2.525-5.705,8.043-3.18,12.325C852.912,848.311,856.189,852.53,859.975,856.316z
				 M908.836,628.663c-0.765,5.539-1.204,11.57-1.279,17.958c19.273,1.02,37.353,9.106,51.288,23.041
				c14.933,14.933,23.157,34.623,23.157,55.445v87.783c0,7.265-1.002,14.458-2.979,21.38c-1.364,4.779,1.404,9.76,6.184,11.125
				c4.779,1.363,9.76-1.403,11.125-6.184c2.436-8.529,3.67-17.385,3.67-26.321v-87.783c0-25.63-10.097-49.842-28.43-68.174
				C954.542,639.904,932.437,629.987,908.836,628.663z M965.002,812.891v-18.058c-5.263,8.648-11.946,15.3-18.052,20.154
				c-0.505,10.331-4.744,20.084-12.068,27.778c-1.14,9.294-3.427,18.25-6.696,26.425c6.829-3.058,13.144-7.379,18.639-12.874
				C958.546,844.594,965.002,829.172,965.002,812.891z M999.958,928.227c-1.935,0-3.883,0.621-5.526,1.902
				c-26.328,20.52-57.807,31.366-91.033,31.366c-29.638,0-58.309-8.805-82.913-25.464c-4.113-2.785-9.711-1.709-12.498,2.407
				s-1.71,9.712,2.406,12.499c27.595,18.683,59.756,28.559,93.006,28.559c37.272,0,72.577-12.161,102.097-35.168
				c3.921-3.056,4.622-8.711,1.566-12.631C1005.288,929.418,1002.637,928.227,999.958,928.227z M859.974,681.682
				c-11.722,11.723-18.178,27.146-18.178,43.426v29.907l4.523,4.814c4.428,4.712,9.086,7.975,13.477,10.25v-44.972
				c0-11.22,4.394-21.887,12.37-30.137c-0.166-8.555,0.8-16.669,2.431-24.203C869.301,673.621,864.376,677.28,859.974,681.682z
				 M965.002,725.108c0-4.971-4.029-9-9-9s-9,4.029-9,9v42.177c8.032-5.711,13.274-11.917,13.365-12.028l4.635-5.564V725.108z
				 M946.823,694.412c3.516-3.515,3.516-9.213,0.001-12.728c-10.564-10.565-24.137-16.834-38.633-17.973
				c0.499,5.99,1.295,12.158,2.417,18.418c8.775,1.503,16.934,5.726,23.488,12.281C937.61,697.925,943.308,697.926,946.823,694.412z
				 M822.478,621.528c-4.176,3.284-8.214,6.87-12.002,10.657c-24.943,24.944-38.68,57.945-38.68,92.923v87.783
				c0,34.979,13.737,67.979,38.681,92.923c18.961,18.961,42.695,31.558,68.638,36.429c4.89,0.917,9.588-2.3,10.507-7.184
				c0.917-4.885-2.3-9.589-7.185-10.506c-22.364-4.2-42.846-15.08-59.231-31.466c-21.544-21.544-33.409-50.025-33.409-80.195
				v-87.783c0-30.17,11.864-58.65,33.408-80.194c3.284-3.285,6.783-6.393,10.4-9.237c3.907-3.072,4.584-8.73,1.511-12.638
				c-1.775-2.258-4.414-3.437-7.08-3.437C826.088,619.602,824.126,620.231,822.478,621.528z M745.796,749.757c4.971,0,9-4.029,9-9
				v-15.649c0-52.26,28.181-101.348,73.545-128.108c4.28-2.525,5.704-8.044,3.179-12.325c-1.679-2.846-4.68-4.428-7.761-4.428
				c-1.554,0-3.129,0.402-4.564,1.249c-24.581,14.501-45.204,35.179-59.638,59.799c-14.891,25.397-22.761,54.38-22.761,83.813
				v15.649C736.796,745.728,740.825,749.757,745.796,749.757z M775.858,919.799c3.198,3.806,8.875,4.298,12.681,1.101
				c3.806-3.198,4.298-8.875,1.101-12.68c-22.469-26.741-34.843-60.596-34.843-95.329v-30.843c0-4.971-4.029-9-9-9s-9,4.029-9,9
				v30.843C736.796,851.853,750.668,889.82,775.858,919.799z M857.102,583.935c14.915-4.93,30.492-7.43,46.298-7.43
				c33.68,0,65.499,11.114,92.018,32.141c25.737,20.407,44.264,49.014,52.169,80.55c1.209,4.821,6.101,7.752,10.918,6.541
				c4.821-1.208,7.75-6.097,6.541-10.918c-8.862-35.359-29.619-67.421-58.444-90.277c-29.733-23.575-65.42-36.036-103.202-36.036
				c-17.729,0-35.205,2.806-51.945,8.34c-4.72,1.56-7.281,6.65-5.721,11.37C847.292,582.933,852.383,585.499,857.102,583.935z
				 M807.685,712.027c-0.674,4.925,2.771,9.463,7.696,10.138c4.917,0.668,9.463-2.771,10.138-7.696
				c2.321-16.957,10.079-32.451,22.435-44.807c9.458-9.459,20.83-16.215,33.185-19.905c3.314-8.208,6.962-15.137,9.876-20.452
				c-20.971,2.711-40.441,12.281-55.79,27.629C820.068,672.092,810.544,691.143,807.685,712.027z M1052.002,730.966v81.925
				c0,36.761-13.678,72.111-38.515,99.538c-3.337,3.684-3.055,9.375,0.63,12.712c3.684,3.337,9.375,3.055,12.712-0.63
				c27.841-30.743,43.173-70.384,43.173-111.62v-81.925c0-4.971-4.029-9-9-9S1052.002,725.996,1052.002,730.966z M969.786,611.584
				c-20.039-11.827-42.996-18.079-66.388-18.079c-15.199,0-30.093,2.584-44.267,7.682c-4.677,1.682-7.105,6.837-5.423,11.515
				c1.682,4.677,6.839,7.107,11.515,5.423c12.214-4.392,25.058-6.619,38.175-6.619c20.176,0,39.969,5.388,57.239,15.581
				c4.281,2.527,9.8,1.104,12.325-3.177C975.49,619.629,974.068,614.111,969.786,611.584z M806.796,812.891
				c0,25.63,10.097,49.842,28.43,68.174c18.333,18.333,42.544,28.429,68.174,28.429c25.629,0,49.84-10.096,68.173-28.429
				c3.515-3.515,3.515-9.213,0-12.728c-3.516-3.515-9.213-3.515-12.729,0c-11.888,11.888-26.797,19.507-42.886,22.126
				c-3.169,3.908-6.664,7.333-10.448,10.157l-4.349,3.246l-4.623-2.84c-4.62-2.838-8.437-6.919-11.603-11.756
				c-13.821-3.372-26.561-10.513-36.981-20.933c-14.934-14.933-23.158-34.624-23.158-55.446v-50.847c0-4.971-4.029-9-9-9
				s-9,4.029-9,9V812.891z"/>
		</g>
		<path style="fill:#08B5FF;" d="M877.816,818.063c0,0-1.224,61.325,22.909,76.147c19.562-14.599,29.639-46.767,26.386-76.179
			c0,0,39.524-17.056,39.414-57.666c0,0-18.201,22.03-41.261,24.186c0,0,3.174-28.263-9.125-56.399
			c-10.287-23.534-24.029-61.469-16.304-98.274c-7.504,13.579-23.983,42.627-18.636,76.858c5.348,34.231,4.956,68.34-1.06,76.487
			c0,0-21.567,1.327-39.65-17.917C840.489,765.307,835.137,797.73,877.816,818.063z M910.443,751.98
			c6.636,19.41-3.792,34.949-7.805,37.538c1.375-5.706-1.913-27.605-1.913-27.605C906.436,762.487,910.443,751.98,910.443,751.98z"
			/>
	</g>
</g>
</svg>
